<svg xmlns="http://www.w3.org/2000/svg" viewBox="0 0 400 400">
  <rect width="400" height="400" fill="#141414"/>
  <path
    d="m 86.630546,362.85148 c -3.855215,-1.20733 -6.697825,-3.86042 -8.37036,-7.81212 -2.093313,-4.94548 -2.007838,-200.74753 0.09374,-214.58433 4.055017,-26.70048 14.90455,-49.363828 32.342024,-67.558632 14.36429,-14.98819 27.63806,-23.404297 47.18342,-29.916278 25.65868,-8.548834 57.84488,-8.74824 83.77193,-0.519012 28.95533,9.190299 54.75082,31.437001 68.5004,59.076382 16.73226,33.6355 17.5337,80.17315 1.9472,113.07671 -6.35314,13.41143 -13.83781,24.02288 -24.44342,34.6547 -18.78827,18.83466 -40.36483,29.43809 -66.62983,32.74409 -30.51284,3.8406 -60.05535,-5.99964 -78.52465,-26.15551 l -5.97759,-6.52351 v 51.79922 c 0,57.17937 0.0868,56.35201 -6.33419,60.23595 -2.89308,1.75005 -5.41854,2.00081 -21.96949,2.18211 -10.285364,0.11245 -20.000464,-0.20229 -21.589064,-0.69977 z M 215.82178,224.83191 c 14.96263,-3.89729 31.52622,-16.69445 38.25691,-29.55757 6.63613,-12.68255 8.29978,-20.06163 8.25667,-36.62407 -0.0304,-13.37122 -0.28518,-15.36681 -2.8542,-22.744 -3.97428,-11.41276 -8.10407,-18.19398 -15.74623,-25.85572 -11.6261,-11.655878 -23.53303,-16.967108 -40.00226,-17.843388 -18.8866,-1.00486 -34.28128,4.96594 -47.67454,18.490538 -12.40359,12.52531 -18.7776,28.90005 -18.86269,48.45799 -0.0569,12.46611 2.15903,22.26571 7.62484,33.76137 7.30054,15.35456 22.08357,27.36808 39.21268,31.86663 7.48572,1.96603 24.32793,1.99153 31.78882,0.0477 z"
    fill="#E50914"
  />
</svg>
