<?xml version="1.0" encoding="UTF-8" standalone="no"?>
<!-- Created with Inkscape (http://www.inkscape.org/) -->

<svg
   width="400mm"
   height="100mm"
   viewBox="0 0 400 100"
   version="1.1"
   id="svg1"
   xml:space="preserve"
   inkscape:version="1.4.2 (f4327f4, 2025-05-13)"
   sodipodi:docname="pstream-new-logo.svg"
   inkscape:export-filename="..\..\Users\ibrah\Desktop\p-pstream-new-logo.png"
   inkscape:export-xdpi="96"
   inkscape:export-ydpi="96"
   xmlns:inkscape="http://www.inkscape.org/namespaces/inkscape"
   xmlns:sodipodi="http://sodipodi.sourceforge.net/DTD/sodipodi-0.dtd"
   xmlns="http://www.w3.org/2000/svg"
   xmlns:svg="http://www.w3.org/2000/svg"><sodipodi:namedview
     id="namedview1"
     pagecolor="#505050"
     bordercolor="#eeeeee"
     borderopacity="1"
     inkscape:showpageshadow="0"
     inkscape:pageopacity="0"
     inkscape:pagecheckerboard="0"
     inkscape:deskcolor="#505050"
     inkscape:document-units="mm"
     inkscape:zoom="0.20289177"
     inkscape:cx="507.65984"
     inkscape:cy="1535.3013"
     inkscape:window-width="1920"
     inkscape:window-height="1171"
     inkscape:window-x="-9"
     inkscape:window-y="-9"
     inkscape:window-maximized="1"
     inkscape:current-layer="layer1"><inkscape:page
       x="0"
       y="0"
       width="400"
       height="100"
       id="page2"
       margin="0"
       bleed="0" /></sodipodi:namedview><defs
     id="defs1" /><g
     inkscape:label="Layer 1"
     inkscape:groupmode="layer"
     id="layer1"><path
       style="fill:#E50914;fill-opacity:1;stroke-width:0.880196"
       d="m 6.4207226,96.07717 c -0.88819,-0.27816 -1.54309,-0.88939 -1.92842,-1.79981 -0.48227,-1.13939 -0.46258,-46.24956 0.0216,-49.43738 0.93422,-6.15143 3.43381,-11.37277 7.4511794,-15.56463 3.30934,-3.45306 6.36743,-5.39202 10.87042,-6.8923 5.91142,-1.96953 13.3267,-2.01547 19.29995,-0.11958 6.67091,2.11733 12.61386,7.24267 15.78157,13.61043 3.8549,7.74917 4.03953,18.47083 0.44861,26.05136 -1.46367,3.08981 -3.18805,5.53456 -5.63144,7.98399 -4.32856,4.33925 -9.29951,6.78213 -15.35063,7.54379 -7.02975,0.88484 -13.83595,-1.38222 -18.09103,-6.02588 l -1.37715,-1.50293 v 11.93386 c 0,13.17336 0.02,12.98275 -1.45931,13.87757 -0.66654,0.40317 -1.24836,0.46096 -5.06149,0.50272 -2.3696094,0.026 -4.6078394,-0.0466 -4.9738194,-0.16121 z M 36.184662,64.27929 c 3.44719,-0.89788 7.26322,-3.84617 8.81389,-6.80968 1.52888,-2.92188 1.91215,-4.62193 1.90222,-8.43769 -0.007,-3.08056 -0.0657,-3.54031 -0.65757,-5.23992 -0.91562,-2.62935 -1.86707,-4.19165 -3.62772,-5.9568 -2.67849,-2.68537 -5.4217,-3.909 -9.21599,-4.11088 -4.35122,-0.23152 -7.89795,1.14407 -10.98358,4.25997 -2.85762,2.88565 -4.32611,6.65819 -4.34571,11.16407 -0.0131,2.87202 0.49741,5.12973 1.75667,7.77817 1.68195,3.53747 5.08775,6.30524 9.03407,7.34165 1.72462,0.45294 5.60483,0.45882 7.32372,0.0111 z m 46.938555,13.1344 C 76.688572,76.7596 67.650962,73.86122 66.168192,71.97618 c -0.70652,-0.89817 -0.65685,-1.8168 0.31977,-5.91544 0.89984,-3.77633 1.39469,-4.6859 2.54936,-4.6859 0.33448,0 1.69363,0.46368 3.02034,1.0304 9.76497,4.17123 19.222875,5.00903 23.458515,2.078 1.83065,-1.26679 2.36336,-4.14901 1.10598,-5.98401 -1.25885,-1.83719 -3.06082,-2.51721 -10.58787,-3.99562 -5.984545,-1.17544 -9.227625,-2.09577 -11.643775,-3.30431 -5.57543,-2.78878 -8.01968,-6.8012 -8.03098,-13.18346 -0.0183,-10.3279 7.51016,-16.5377 20.722735,-17.093 6.57552,-0.27636 14.629683,1.17734 18.707373,3.37649 1.60469,0.86544 1.86836,1.49401 1.56228,3.72446 -0.73598,5.36304 -1.26853,7.00305 -2.4487,7.54077 -0.49445,0.22529 -0.97768,0.10805 -3.34087,-0.81054 -3.421543,-1.32998 -5.542023,-1.91824 -8.541503,-2.36957 -5.83776,-0.87839 -10.708985,0.0837 -12.339965,2.43718 -0.82136,1.18523 -0.9942,2.88072 -0.404,3.96333 0.97688,1.79197 3.049055,2.52622 12.860415,4.55693 6.79202,1.40578 10.217853,2.69978 12.872333,4.8621 5.31605,4.33043 6.60876,12.85206 3.00484,19.80808 -1.00548,1.94071 -3.91357,4.95799 -5.91058,6.13252 -4.963733,2.9194 -12.036663,4.07662 -19.980673,3.2691 z m 53.287413,0.0121 C 129.91584,76.47304 124.84328,73.02037 122.25378,67.78984 120.1562,63.55288 119.9191,61.37078 119.9191,46.30165 V 34.12729 h -2.56921 c -4.53912,0 -4.94567,-0.44672 -5.07611,-5.57785 -0.0944,-3.71533 0.0919,-4.7397 1.02222,-5.61459 0.56547,-0.53186 0.79695,-0.57318 3.61364,-0.64499 l 3.00946,-0.0767 V 14.7718 c 0,-8.1724207 0.0417,-8.4623907 1.38113,-9.5894007 1.24765,-1.04982 2.93734,-1.39097 7.0353,-1.42042 3.36594,-0.0242 3.70428,0.0121 4.31346,0.46198 1.22583,0.90538 1.2361,0.98676 1.2398,9.8169507 l 0.003,8.20921 h 6.53235 c 5.38344,0 6.6525,0.0621 7.2155,0.35327 1.22629,0.63414 1.3897,1.29951 1.3897,5.65877 0,3.6421 -0.0367,3.98585 -0.48634,4.55749 -0.99268,1.26198 -1.28061,1.30762 -8.2506,1.30762 h -6.43121 l 0.0922,11.81893 c 0.0796,10.21816 0.1462,12.02352 0.49121,13.32953 0.98117,3.71398 3.17186,5.61416 6.95905,6.03619 2.95623,0.32944 6.02687,-0.30276 8.51827,-1.75378 1.82627,-1.06365 4.04856,-3.48126 5.00388,-5.44369 1.41839,-2.91369 1.56592,-3.83847 1.78322,-11.17849 0.10805,-3.65048 0.31968,-7.21362 0.47024,-7.9181 1.19291,-5.5816 3.54207,-9.78162 7.22055,-12.90949 5.44547,-4.63037 14.09446,-6.36791 22.58588,-4.53742 1.64152,0.35386 2.79862,1.42238 2.79862,2.58436 0,1.01413 -1.07807,6.73232 -1.53628,8.14854 -0.38538,1.19116 -1.11503,1.82342 -2.10426,1.82342 -0.34619,0 -1.82268,-0.17163 -3.28106,-0.3814 -3.25171,-0.46772 -5.23795,-0.22478 -7.34521,0.89838 -2.27064,1.21023 -3.52785,2.97214 -4.42218,6.19732 -0.47853,1.72573 -0.49809,2.32336 -0.57953,17.70643 -0.0928,17.54696 -0.0103,16.6177 -1.55107,17.44401 -0.5606,0.30064 -1.5471,0.40779 -4.40681,0.47863 -4.77182,0.1182 -6.03714,-0.0405 -6.97014,-0.87412 -0.62533,-0.55872 -0.73577,-0.83576 -0.825,-2.06922 l -0.10291,-1.42412 -1.46268,1.04375 c -1.96926,1.40524 -5.39453,2.99201 -7.74608,3.58841 -3.29396,0.83541 -8.03243,1.13173 -11.04072,0.69043 z m 79.45723,0.1056 c -2.06406,-0.2625 -4.94239,-0.85922 -6.70613,-1.39028 -11.82936,-3.56179 -19.37144,-14.08471 -19.3761,-27.03409 -0.004,-12.18859 6.13791,-22.02784 16.35408,-26.19741 4.51084,-1.84103 10.81847,-2.5234 15.99579,-1.73045 9.37331,1.4356 16.46018,7.36618 19.34259,16.18664 1.55486,4.75808 1.84021,10.6441 0.63538,13.10665 -0.33813,0.69112 -0.90601,1.47006 -1.26194,1.73099 -1.57524,1.15473 -1.14448,1.12844 -19.68555,1.20154 -9.5745,0.0377 -17.40817,0.15233 -17.40817,0.25463 0,0.49004 1.04866,3.31437 1.65404,4.45487 2.68805,5.06389 8.57292,7.91968 16.31471,7.91716 10.81081,-0.003 20.68703,-5.32761 25.08717,-13.52403 1.41244,-2.63101 1.83954,-3.87202 3.17039,-9.21196 1.74872,-7.01655 3.3544,-10.22088 7.09119,-14.15129 3.74722,-3.94138 8.51553,-6.53908 14.21924,-7.74643 2.48838,-0.52673 9.469,-0.59043 12.11003,-0.11051 10.28733,1.86942 18.02462,8.75249 21.07298,18.74646 1.18744,3.89304 1.31059,4.97832 1.50986,13.30644 0.19454,8.12972 0.2975,8.99621 1.23212,10.36938 0.86958,1.27762 1.64984,1.70887 3.27965,1.81265 2.44707,0.15581 3.94008,-0.91345 4.75781,-3.40748 0.28828,-0.8792 0.38946,-3.13332 0.52453,-11.68561 0.17973,-11.38106 0.24594,-12.05029 1.55236,-15.69177 1.13792,-3.17183 2.49032,-5.32254 4.7622,-7.57338 2.82044,-2.79432 6.77359,-4.88317 10.91306,-5.76649 2.77141,-0.59138 9.11964,-0.59613 11.84297,-0.009 4.2058,0.90697 7.6277,2.76548 10.42338,5.66117 l 1.656,1.71523 1.19344,-1.37214 c 3.47835,-3.99914 8.59217,-6.1941 15.05692,-6.46271 4.82148,-0.20033 8.59805,0.57808 12.21767,2.51828 5.8746,3.14892 9.33241,8.5616 10.24477,16.0366 0.18777,1.53851 0.24818,7.18098 0.19863,18.55408 -0.0703,16.15684 -0.0768,16.35073 -0.55792,17.00063 -0.92534,1.24986 -1.42522,1.35605 -6.3834,1.35605 -4.95801,0 -5.4579,-0.10619 -6.38339,-1.35585 -0.47963,-0.64758 -0.48866,-0.894 -0.61946,-16.88417 -0.11928,-14.57332 -0.17454,-16.36809 -0.54314,-17.61162 -0.63606,-2.14582 -1.48273,-3.63891 -2.74107,-4.8337 -3.46891,-3.29374 -10.3375,-2.91205 -13.22601,0.73499 -0.96396,1.21711 -1.79055,2.93661 -2.25503,4.69095 -0.34569,1.30583 -0.41148,3.47804 -0.52956,17.48687 l -0.13476,15.99583 -0.68754,0.71741 c -1.00781,1.05155 -2.00363,1.22225 -6.62495,1.13564 -4.57874,-0.0858 -5.26283,-0.27369 -6.01624,-1.65225 -0.38017,-0.69567 -0.41609,-1.95548 -0.47191,-16.56236 -0.0656,-17.16529 -0.0841,-17.43393 -1.38467,-20.08998 -1.67325,-3.41724 -5.83111,-5.31541 -9.8928,-4.51633 -3.7711,0.74192 -6.10402,3.04654 -7.20481,7.11741 -0.46258,1.71068 -0.51625,2.65684 -0.67334,11.87288 -0.19376,11.3673 -0.30681,12.20576 -2.15085,15.95264 -1.27063,2.58182 -4.13704,5.54692 -6.58315,6.80981 -5.93174,3.06248 -15.06373,2.92002 -20.53859,-0.3204 -1.87053,-1.10713 -4.04465,-3.34654 -5.25303,-5.41082 l -1.03276,-1.76429 -0.71625,1.10535 c -2.43265,3.7542 -6.62132,6.70412 -11.35996,8.00035 -1.56594,0.42835 -2.45939,0.50556 -5.80957,0.50208 -3.49392,-0.004 -4.22099,-0.0737 -6.18864,-0.59666 -7.20695,-1.91538 -13.24225,-6.40293 -16.59494,-12.33919 l -1.02702,-1.81841 -0.4182,0.64546 c -0.73651,1.13675 -3.65791,4.02955 -5.63297,5.57783 -5.33914,4.18543 -11.27991,6.79949 -18.22905,8.02117 -2.59834,0.45679 -10.09142,0.7815 -12.11002,0.52478 z m 66.85463,-13.68164 c 2.22221,-0.89759 3.88115,-2.01251 5.42076,-3.6431 2.78636,-2.95108 3.93757,-6.13401 3.95747,-10.94187 0.0104,-2.34048 -0.0907,-3.27418 -0.51182,-4.76365 -1.53206,-5.41796 -5.32615,-9.21398 -10.51026,-10.51559 -2.0821,-0.52277 -5.84391,-0.35092 -7.92101,0.36186 -5.27877,1.81145 -8.8591,6.37647 -9.7818,12.47209 -0.69279,4.57664 0.75692,9.82127 3.61924,13.09332 1.36164,1.55657 4.08395,3.37078 6.02952,4.01823 3.01554,1.0035 7.09693,0.96929 9.6979,-0.0813 z M 229.29217,42.65652 c -0.64329,-5.47348 -3.94832,-9.17656 -9.17961,-10.28518 -7.27167,-1.54102 -14.13298,2.55335 -16.08533,9.59866 -0.25424,0.91739 -0.40138,1.72883 -0.32701,1.8032 0.0743,0.0744 5.89609,0.13521 12.93715,0.13521 h 12.80195 z"
       id="path1" /></g></svg>
