<svg xmlns="http://www.w3.org/2000/svg" viewBox="0 0 400 400" width="100%" height="100%">
  <rect width="400" height="400" fill="#000000" />
  <path
     d="M 89.93,40.90 Q 94.47,40.00 103.09,40.00 Q 118.97,40.00 141.66,42.04 Q 164.36,44.07 169.81,45.88 Q 178.44,49.08 181.39,53.39 Q 184.34,57.70 184.34,67.22 Q 184.34,76.75 177.98,82.66 Q 171.18,88.57 166.63,88.57 L 148.04,89.01 Q 129.87,89.46 118.07,89.46 Q 96.74,89.46 93.56,88.10 Q 88.10,86.29 84.92,77.90 Q 81.76,69.50 81.76,59.96 Q 81.76,42.71 89.93,40.90 Z M 227.46,46.81 Q 232.00,43.18 238.13,42.49 Q 244.26,41.81 266.95,41.81 Q 316.87,41.81 321.86,56.33 Q 322.78,59.06 322.78,68.14 Q 322.78,75.38 321.86,95.37 Q 320.05,132.59 320.05,200.21 L 320.05,271.50 L 306.44,285.11 L 276.02,285.11 Q 250.60,285.11 239.70,282.83 Q 228.81,280.57 224.74,274.20 Q 222.01,270.13 222.01,255.14 Q 222.01,236.53 223.83,194.33 Q 225.64,155.74 225.64,121.24 Q 225.64,80.85 222.46,61.33 Q 222.01,59.06 222.01,55.89 Q 222.01,50.89 227.46,46.81 Z M 89.93,115.80 Q 91.74,115.34 115.80,115.34 L 134.41,115.34 Q 174.81,115.80 177.54,118.51 Q 180.71,121.70 180.71,152.11 Q 180.71,158.02 179.80,212.48 L 179.80,227.00 Q 179.80,261.49 181.61,299.63 Q 182.98,321.42 182.98,331.85 Q 182.98,342.29 181.16,346.14 Q 179.35,350.01 174.81,352.73 Q 171.63,355.00 134.41,355.00 Q 96.74,355.00 89.93,352.73 Q 84.48,350.92 82.67,349.11 Q 80.85,347.29 79.03,340.92 Q 77.22,335.94 77.22,326.87 Q 77.22,322.33 77.67,320.05 Q 78.12,318.23 80.84,220.87 Q 83.57,123.51 84.48,120.78 Q 86.29,116.70 89.93,115.80 Z M 227.00,311.88 Q 231.54,309.61 258.78,309.61 Q 302.36,309.61 311.43,313.69 Q 317.32,315.96 317.32,322.77 Q 317.32,328.22 316.87,332.76 Q 315.98,349.10 310.51,352.73 Q 300.53,360.00 261.05,360.00 Q 235.18,360.00 226.10,354.78 Q 217.02,349.55 217.02,335.04 Q 217.02,316.42 227.00,311.88 Z"
     fill="#e50914" />
</svg>
