<?xml version="1.0" encoding="UTF-8" standalone="no"?>
<!-- Created with Inkscape (http://www.inkscape.org/) -->

<svg
   width="400mm"
   height="400mm"
   viewBox="0 0 400 400"
   version="1.1"
   id="svg1"
   xml:space="preserve"
   inkscape:version="1.4.2 (f4327f4, 2025-05-13)"
   sodipodi:docname="pstream-new-logo.svg"
   inkscape:export-filename="..\..\Users\ibrah\Desktop\pstream-new-logo.png"
   inkscape:export-xdpi="96"
   inkscape:export-ydpi="96"
   xmlns:inkscape="http://www.inkscape.org/namespaces/inkscape"
   xmlns:sodipodi="http://sodipodi.sourceforge.net/DTD/sodipodi-0.dtd"
   xmlns="http://www.w3.org/2000/svg"
   xmlns:svg="http://www.w3.org/2000/svg"><sodipodi:namedview
     id="namedview1"
     pagecolor="#505050"
     bordercolor="#eeeeee"
     borderopacity="1"
     inkscape:showpageshadow="0"
     inkscape:pageopacity="0"
     inkscape:pagecheckerboard="0"
     inkscape:deskcolor="#505050"
     inkscape:document-units="mm"
     inkscape:zoom="0.20289177"
     inkscape:cx="507.65984"
     inkscape:cy="1535.3013"
     inkscape:window-width="1920"
     inkscape:window-height="1171"
     inkscape:window-x="-9"
     inkscape:window-y="-9"
     inkscape:window-maximized="1"
     inkscape:current-layer="layer1"><inkscape:page
       x="0"
       y="0"
       width="400"
       height="400"
       id="page2"
       margin="0"
       bleed="0" /></sodipodi:namedview><defs
     id="defs1" /><g
     inkscape:label="Layer 1"
     inkscape:groupmode="layer"
     id="layer1"><path
       d="m 74.182525,380.7327 c -4.278519,-1.33993 -7.433248,-4.2843 -9.289429,-8.6699 -2.323157,-5.48859 -2.228303,-222.78972 0.104043,-238.14583 4.500254,-29.63218 16.54108,-54.783998 35.893181,-74.97665 15.9415,-16.633856 30.67273,-25.974055 52.36418,-33.201087 28.47602,-9.487462 64.19628,-9.70876 92.97014,-0.57598 32.13463,10.199429 60.76248,34.888767 76.02177,65.563028 18.56947,37.328689 19.45891,88.976219 2.16101,125.492549 -7.05072,14.88403 -15.35721,26.66064 -27.12732,38.45984 -20.85124,20.90269 -44.79691,32.67039 -73.94583,36.33934 -33.86316,4.26238 -66.64945,-6.65832 -87.14669,-29.02738 l -6.63394,-7.23975 v 57.48679 c 0,63.45767 0.0964,62.53948 -7.02968,66.84993 -3.21074,1.94212 -6.01349,2.2205 -24.381752,2.42166 -11.414695,0.12477 -22.196517,-0.22447 -23.959542,-0.77656 z M 217.55902,227.55847 c 16.60553,-4.3252 34.98781,-18.52747 42.45753,-32.80305 7.36479,-14.07504 9.2111,-22.26439 9.16326,-40.64537 -0.0337,-14.83938 -0.31648,-17.0541 -3.16759,-25.24133 -4.41065,-12.66589 -8.9939,-20.19163 -17.47517,-28.69462 -12.90266,-12.935752 -26.11698,-18.830124 -44.39453,-19.802605 -20.96035,-1.11526 -38.04538,5.511125 -52.90923,20.520795 -13.76551,13.90052 -20.8394,32.0733 -20.93382,53.77867 -0.0631,13.83486 2.39609,24.71052 8.46205,37.46838 8.10215,17.04047 24.50836,30.3731 43.51826,35.36566 8.30765,2.18182 26.99914,2.21014 35.27924,0.0535 z"
       style="fill:#E50914;fill-opacity:1;stroke-width:4.24001"
       id="path1-1" /></g></svg>
