<svg xmlns="http://www.w3.org/2000/svg" viewBox="0 0 400 400" width="100%" height="100%">
  <path
     d="M 69.29,11.07 Q 74.69,10.00 84.92,10.00 Q 103.77,10.00 130.72,12.43 Q 157.67,14.84 164.15,16.99 Q 174.39,20.79 177.90,25.90 Q 181.41,31.02 181.41,42.33 Q 181.41,53.64 173.85,60.66 Q 165.77,67.67 160.38,67.67 L 138.29,68.20 Q 116.72,68.74 102.71,68.74 Q 77.38,68.74 73.61,67.12 Q 67.12,64.97 63.35,55.00 Q 59.59,45.03 59.59,33.71 Q 59.59,13.22 69.29,11.07 Z M 232.61,18.08 Q 238.00,13.77 245.28,12.95 Q 252.56,12.15 279.51,12.15 Q 338.79,12.15 344.71,29.39 Q 345.80,32.64 345.80,43.41 Q 345.80,52.02 344.71,75.75 Q 342.56,119.95 342.56,200.25 L 342.56,284.90 L 326.39,301.07 L 290.28,301.07 Q 260.08,301.07 247.15,298.36 Q 234.21,295.67 229.38,288.12 Q 226.13,283.28 226.13,265.48 Q 226.13,243.38 228.30,193.26 Q 230.44,147.44 230.44,106.48 Q 230.44,58.51 226.67,35.33 Q 226.13,32.64 226.13,28.87 Q 226.13,22.93 232.61,18.08 Z M 69.29,100.02 Q 71.44,99.46 100.02,99.46 L 122.11,99.46 Q 170.08,100.02 173.33,103.23 Q 177.10,107.02 177.10,143.13 Q 177.10,150.15 176.02,214.82 L 176.02,232.07 Q 176.02,273.02 178.16,318.31 Q 179.79,344.18 179.79,356.57 Q 179.79,368.97 177.62,373.54 Q 175.48,378.13 170.08,381.36 Q 166.31,384.07 122.11,384.07 Q 77.38,384.07 69.29,381.36 Q 62.82,379.21 60.67,377.07 Q 58.51,374.90 56.35,367.35 Q 54.20,361.43 54.20,350.66 Q 54.20,345.26 54.74,342.56 Q 55.26,340.40 58.49,224.79 Q 61.74,109.17 62.82,105.92 Q 64.97,101.08 69.29,100.02 Z M 232.07,332.85 Q 237.46,330.16 269.80,330.16 Q 321.56,330.16 332.33,335.00 Q 339.31,337.71 339.31,345.79 Q 339.31,352.26 338.79,357.66 Q 337.72,377.05 331.23,381.36 Q 319.38,390.00 272.49,390.00 Q 241.77,390.00 231.00,383.80 Q 220.21,377.59 220.21,360.36 Q 220.21,338.25 232.07,332.85 Z"
     fill="#e50914" />
</svg>
